<?xml version="1.0" standalone="no"?><!DOCTYPE svg PUBLIC "-//W3C//DTD SVG 1.1//EN" "http://www.w3.org/Graphics/SVG/1.1/DTD/svg11.dtd"><svg t="1717496104479" class="icon" viewBox="0 0 1050 1024" version="1.1" xmlns="http://www.w3.org/2000/svg" p-id="10995" xmlns:xlink="http://www.w3.org/1999/xlink" width="205.078125" height="200"><path d="M537.491332 1023.988274a531.893685 531.893685 0 0 1-114.917835-12.723046C286.630388 981.29278 160.396663 899.325875 76.225211 786.389785l47.010776-35.038213c145.699399 195.501036 447.710507 298.633931 681.54485 124.298883 143.354137-106.850135 180.209928-241.28055 185.838557-335.290375 7.293765-120.780991-32.904025-249.512419-110.227312-353.325439l47.010776-35.038214a626.419468 626.419468 0 0 1 95.29972 185.709568c21.693673 68.552007 30.605668 137.936582 26.548365 206.195431-4.38564 72.585857-23.45262 141.114412-56.602897 203.662548-35.741792 67.262113-87.138208 126.186819-152.828995 175.144162-62.501231 46.612081-131.733364 77.53436-205.749832 91.981174a503.78572 503.78572 0 0 1-96.577887 9.298964z" fill="#4070DB" p-id="10996"></path><path d="M362.992117 906.220945c-61.527947 0-118.377097-11.268984-168.964398-33.502067-53.202267-23.382262-97.023487-57.845886-130.244122-102.41759S10.077098 673.887569 2.865418 616.217578c-6.848165-54.832224-1.407157-112.572574 16.170581-171.485554 35.554171-119.209665 117.052024-231.008302 229.483882-314.792786S491.371756 0 615.76445 0c61.527947 0 118.377097 11.28071 168.964397 33.560699 53.202267 23.382262 97.023487 57.845886 130.244123 102.417589s53.718225 96.413719 60.976811 154.08371c6.848165 54.832224 1.407157 112.572574-16.170582 171.485554-35.554171 119.209665-117.052024 231.008302-229.483882 314.804512S487.384811 906.220945 362.992117 906.220945zM615.76445 58.631549c-111.857269 0-229.835671 42.015368-332.206356 118.306739S107.194396 354.298723 75.228475 461.488921c-31.051268 104.106178-18.422033 201.340739 35.565898 273.774154s143.553484 112.326321 252.197744 112.326321c111.857269 0 229.835671-42.015368 332.218082-118.306739s176.351973-177.360435 208.317893-284.550633c31.051268-104.106178 18.410306-201.340739-35.565898-273.774154C813.974264 98.524455 724.432163 58.631549 615.76445 58.631549z" fill="#4070DB" p-id="10997"></path><path d="M471.906082 458.991217a29.315774 29.315774 0 0 1-16.416834-5.042313L263.506105 323.951033a68.44647 68.44647 0 0 1-2.521157-111.564111l62.98201-46.905239a68.434744 68.434744 0 0 1 106.134829 34.264277l69.771544 221.111297a29.315774 29.315774 0 0 1-27.967249 38.13396zM364.774516 210.48726a9.381048 9.381048 0 0 0-5.769345 1.97002l-62.993736 46.905239a9.838374 9.838374 0 0 0 0.363516 16.006413L418.633457 358.156679l-44.395809-140.786075a9.650753 9.650753 0 0 0-6.285302-6.390839 10.330879 10.330879 0 0 0-3.17783-0.492505z" fill="#4070DB" p-id="10998"></path><path d="M454.78567 453.116336l-278.828194 64.553335c-29.245417 6.766081-54.902582-20.556221-46.33065-49.320859l17.448749-58.479107a39.118969 39.118969 0 0 1 47.643997-26.606997z" fill="#4070DB" p-id="10999"></path><path d="M211.523374 757.214727c-1.172631 0-2.274904 0-3.424083-0.082085a68.22367 68.22367 0 0 1-51.501952-27.463017l-27.345755-36.70335a68.44647 68.44647 0 0 1 25.141208-102.546578l290.812482-140.281844A29.315774 29.315774 0 0 1 479.610267 496.304334L262.063769 734.887833a68.188491 68.188491 0 0 1-50.540395 22.326894z m122.622021-188.406619l-154.283058 74.415161a9.826648 9.826648 0 0 0-3.599977 14.716519l27.345754 36.691623a9.826648 9.826648 0 0 0 15.138666 0.750484z" fill="#4070DB" p-id="11000"></path><path d="M479.493004 486.254887l-7.387575 269.189167a39.118969 39.118969 0 0 1-39.118969 38.051875h-60.976811c-30.019353 0-48.863533-32.399794-34.006298-58.479107z" fill="#4070DB" p-id="11001"></path><path d="M613.841335 754.341781a68.411291 68.411291 0 0 1-65.233461-47.866797l-69.724638-221.111297a29.315774 29.315774 0 0 1 44.395809-33.091646l191.971417 129.99787a68.458196 68.458196 0 0 1 2.532883 111.564111l-62.993736 46.905239a68.540281 68.540281 0 0 1-40.948274 13.60252z m-53.718225-206.312694l44.395809 140.821254a9.826648 9.826648 0 0 0 15.244203 4.92505l62.993736-46.905239a9.838374 9.838374 0 0 0-0.363516-16.006413z" fill="#4070DB" p-id="11002"></path><path d="M523.970897 453.116336l278.828194-64.553336c29.245417-6.777807 54.902582 20.544495 46.33065 49.309133l-17.448749 58.479107a39.142422 39.142422 0 0 1-47.643997 26.618723z" fill="#4070DB" p-id="11003"></path><path d="M520.839972 458.991217a29.315774 29.315774 0 0 1-21.681946-49.015975l217.534772-238.64213a68.458196 68.458196 0 0 1 105.46643 5.218208l27.345754 36.703349A68.458196 68.458196 0 0 1 824.363774 315.812975L533.551292 456.083092a29.386132 29.386132 0 0 1-12.71132 2.908125z m246.4284-251.35345a9.650753 9.650753 0 0 0-7.246859 3.201283l-115.410341 126.573787 154.283058-74.415162a9.814921 9.814921 0 0 0 3.599977-14.704792l-27.345755-36.70335a9.709384 9.709384 0 0 0-7.387575-3.94004z" fill="#4070DB" p-id="11004"></path><path d="M499.287015 419.966058l7.364123-269.142262a39.118969 39.118969 0 0 1 39.118969-38.051875h60.976811c30.019353 0 48.863533 32.399794 34.006298 58.490833z" fill="#4070DB" p-id="11005"></path></svg>